<svg height="64" viewBox="0 0 182 64" width="182" xmlns="http://www.w3.org/2000/svg"><g fill="none" fill-rule="evenodd"><rect fill="#000" height="64" rx="6" width="182"/><g fill="#fff" fill-rule="nonzero"><path d="m18 16v9.4330958h2.776849v-4.8323683l8.7373131 8.4803536 1.9633154-1.9055864-8.7373132-8.4803536h4.9788068v-2.6951411zm24.2810289 0v2.6951411h4.9788068l-8.7373132 8.4803536 1.9633154 1.9055864 8.7373131-8.4803536v4.8323683h2.776849v-9.4330958zm-12.7668668 19.9189189-8.7373131 8.4803026v-4.8323682h-2.776849v9.4331467h9.7189711v-2.6951921h-4.9788068l8.7373132-8.4803026zm1.858972-8.9189189-2.0398008 1.8706685 17.8880639 17.4045967h-5.0191805v2.7247348h9.7977833v-9.5365462h-2.7993667v4.8853373z" transform="matrix(-1 0 0 1 70 0)"/><path d="m81.14 20h3.87v21h-3.87v-1.77c-1.1400057 1.4600073-2.7599895 2.19-4.86 2.19-2.0200101 0-3.7449929-.7649923-5.175-2.295-1.4300072-1.5300077-2.145-3.4049889-2.145-5.625s.7149928-4.0949923 2.145-5.625c1.4300071-1.5300077 3.1549899-2.295 5.175-2.295 2.1000105 0 3.7199943.7299927 4.86 2.19zm-7.14 16.56c.800004.7800039 1.799994 1.17 3 1.17s2.1899961-.394996 2.97-1.185c.7800039-.7900039 1.17-1.8049938 1.17-3.045s-.3899961-2.254996-1.17-3.045-1.769994-1.185-2.97-1.185-2.1949961.394996-2.985 1.185-1.185 1.8049938-1.185 3.045.3899961 2.259996 1.17 3.06zm22.89-10.98c1.6400082 0 2.9949946.5499945 4.065 1.65 1.070005 1.1000055 1.605 2.6199903 1.605 4.56v9.21h-3.87v-8.73c0-1.000005-.2699973-1.7649973-.81-2.295-.5400027-.5300026-1.2599955-.795-2.16-.795-1.000005 0-1.799997.3099969-2.4.93s-.9 1.5499938-.9 2.79v8.1h-3.87v-15h3.87v1.68c.9400047-1.400007 2.4299898-2.1 4.47-2.1zm20.34-5.58h3.87v21h-3.87v-1.77c-1.140006 1.4600073-2.759989 2.19-4.86 2.19-2.02001 0-3.744993-.7649923-5.175-2.295s-2.145-3.4049889-2.145-5.625.714993-4.0949923 2.145-5.625 3.15499-2.295 5.175-2.295c2.100011 0 3.719994.7299927 4.86 2.19zm-7.14 16.56c.800004.7800039 1.799994 1.17 3 1.17s2.189996-.394996 2.97-1.185c.780004-.7900039 1.17-1.8049938 1.17-3.045s-.389996-2.254996-1.17-3.045-1.769994-1.185-2.97-1.185-2.194996.394996-2.985 1.185-1.185 1.8049938-1.185 3.045.389996 2.259996 1.17 3.06zm35.88 4.44h-4.5l-5.46-6.81v6.81h-3.87v-21h3.87v12.6l5.16-6.6h4.62l-6.03 7.41zm3.84-16.8c-.640003 0-1.194998-.2349977-1.665-.705s-.705-1.0249968-.705-1.665.234998-1.1999976.705-1.68 1.024997-.72 1.665-.72c.660003 0 1.224998.2399976 1.695.72s.705 1.0399968.705 1.68-.234998 1.1949977-.705 1.665-1.034997.705-1.695.705zm-1.92 16.8v-15h3.87v15zm15.99-11.28h-3.39v6.24c0 .5200026.129999.8999988.39 1.14s.639997.3749999 1.14.405c.500002.0300002 1.119996.0250002 1.86-.015v3.51c-2.660013.3000015-4.534995.050004-5.625-.75s-1.635-2.2299897-1.635-4.29v-6.24h-2.61v-3.72h2.61v-3.03l3.87-1.17v4.2h3.39z"/></g></g></svg>