<?xml version="1.0" encoding="UTF-8"?>
<svg version="1.1" xmlns="http://www.w3.org/2000/svg" width="192" height="192">
<path d="M0 0 C63.36 0 126.72 0 192 0 C192 63.36 192 126.72 192 192 C128.64 192 65.28 192 0 192 C0 128.64 0 65.28 0 0 Z " fill="#000000" transform="translate(0,0)"/>
<path d="M0 0 C0.99 0.99 0.99 0.99 2 2 C1.71894797 6.04595301 0.46168028 8.04128465 -2.35150146 10.87289429 C-3.06926758 11.60483002 -3.78703369 12.33676575 -4.52655029 13.09088135 C-5.71561981 14.27251862 -5.71561981 14.27251862 -6.92871094 15.47802734 C-7.75963257 16.31917084 -8.5905542 17.16031433 -9.44665527 18.02694702 C-11.72434985 20.32766768 -14.01087504 22.61910833 -16.30263805 24.9058032 C-18.21490127 26.81592588 -20.12117579 28.73197053 -22.02757096 30.64794695 C-26.5237945 35.16634775 -31.03057641 39.67402347 -35.54394531 44.17529297 C-40.20179024 48.82104303 -44.84094672 53.48487776 -49.47141433 58.15790212 C-53.44794862 62.16963486 -57.43596483 66.16969316 -61.43339372 70.16060603 C-63.82075434 72.54433681 -66.20342566 74.93232569 -68.57506561 77.331707 C-71.22057027 80.00177456 -73.88430694 82.65219576 -76.55371094 85.29833984 C-77.33832703 86.09824341 -78.12294312 86.89814697 -78.93133545 87.72229004 C-80.02490356 88.79481522 -80.02490356 88.79481522 -81.14056396 89.88900757 C-81.76884975 90.51762884 -82.39713554 91.14625011 -83.0444603 91.79392052 C-85 93 -85 93 -87.67871475 92.75693703 C-90 92 -90 92 -91 91 C-91.33499528 88.06004882 -91.35478101 86.52273349 -89.67087269 84.04166698 C-89.04317321 83.41208238 -88.41547373 82.78249777 -87.76875305 82.13383484 C-87.0523616 81.40334427 -86.33597015 80.6728537 -85.59786987 79.92022705 C-84.80156158 79.13403992 -84.0052533 78.34785278 -83.18481445 77.5378418 C-82.35403885 76.6983046 -81.52326324 75.8587674 -80.66731262 74.99378967 C-78.3871086 72.69534339 -76.09600215 70.40852163 -73.79875588 68.12712836 C-71.39660864 65.73764055 -69.00668555 63.33597679 -66.61479187 60.93623352 C-62.59598061 56.90832582 -58.56674205 52.89107489 -54.53149414 48.87963867 C-49.86641968 44.24177549 -45.21963188 39.58617353 -40.58193427 34.92094678 C-36.59956854 30.91589081 -32.60754083 26.92066176 -28.60727662 22.93348247 C-26.21812738 20.55212822 -23.83248449 18.16752515 -21.45549965 15.77402306 C-18.80294439 13.10880557 -16.13495191 10.46008539 -13.4621582 7.81518555 C-12.67597107 7.01887726 -11.88978394 6.22256897 -11.07977295 5.40213013 C-10.34928238 4.68573868 -9.61879181 3.96934723 -8.86616516 3.23124695 C-7.92178825 2.28969773 -7.92178825 2.28969773 -6.95833302 1.32912731 C-4.45187035 -0.37201747 -2.97122651 -0.40759655 0 0 Z " fill="#FAFAFA" transform="translate(134,43)"/>
<path d="M0 0 C2.3256073 0.38395691 2.3256073 0.38395691 4.3256073 2.38395691 C4.11263659 6.92810766 2.18714702 9.03580941 -0.93122864 12.19010925 C-2.28833954 13.57581619 -2.28833954 13.57581619 -3.67286682 14.98951721 C-4.66750826 15.98363591 -5.66282514 16.97707922 -6.6587677 17.96989441 C-7.67713374 18.99603671 -8.69505138 20.02262419 -9.71253967 21.04963684 C-11.84442836 23.19642953 -13.98387834 25.33533076 -16.12849426 27.46940613 C-18.87737308 30.20667169 -21.60279776 32.96604616 -24.32258224 35.73218346 C-26.41739735 37.85643598 -28.52587499 39.96670004 -30.63857269 42.07315445 C-31.64958404 43.08519327 -32.65587039 44.10197509 -33.65729523 45.12350082 C-35.05715383 46.54798912 -36.47813016 47.95163194 -37.89997864 49.35417175 C-38.70304443 50.1584964 -39.50611023 50.96282104 -40.33351135 51.79151917 C-42.6743927 53.38395691 -42.6743927 53.38395691 -45.41029358 53.19831848 C-47.6743927 52.38395691 -47.6743927 52.38395691 -48.6743927 51.38395691 C-49.14303075 48.08467117 -48.9497641 46.76141222 -46.96170044 44.03634644 C-46.15959641 43.23026443 -45.35749237 42.42418243 -44.53108215 41.59367371 C-43.62626602 40.67309677 -42.72144989 39.75251984 -41.78921509 38.80404663 C-40.78933519 37.81311636 -39.78880538 36.8228415 -38.78767395 35.83317566 C-37.76758768 34.80972058 -36.74824456 33.78552431 -35.72961426 32.76062012 C-33.59302379 30.6166615 -31.44765991 28.48199836 -29.29573059 26.35343933 C-26.53906003 23.62525623 -23.80544695 20.87523891 -21.07801533 18.11786175 C-18.9774908 15.99926289 -16.86519391 13.89272607 -14.74915123 11.78963661 C-13.73638546 10.78020446 -12.72731588 9.76704975 -11.72205544 8.75014305 C-10.31503594 7.330416 -8.89021379 5.92839932 -7.4646759 4.52726746 C-6.6585939 3.72516342 -5.8525119 2.92305939 -5.02200317 2.09664917 C-2.6743927 0.38395691 -2.6743927 0.38395691 0 0 Z " fill="#FAFAFA" transform="translate(140.6743927001953,91.61604309082031)"/>
</svg>
